<svg xmlns="http://www.w3.org/2000/svg" width="282" height="282" viewBox="0 0 282 282">
  <defs>
    <style>
      .cls-1, .cls-6 {
        fill: #fff;
      }

      .cls-10, .cls-2, .cls-4, .cls-5 {
        fill: none;
      }

      .cls-2, .cls-3, .cls-4 {
        stroke: #a5a100;
      }

      .cls-2 {
        stroke-linecap: round;
        stroke-width: 20px;
      }

      .cls-3, .cls-4 {
        stroke-width: 10px;
      }

      .cls-4 {
        stroke-linecap: square;
      }

      .cls-5 {
        stroke: #000;
        stroke-width: 5px;
      }

      .cls-6 {
        font-size: 35px;
        font-family: Bocemina;
      }

      .cls-7, .cls-8, .cls-9 {
        stroke: none;
      }

      .cls-8 {
        fill: #a5a100;
      }
    </style>
  </defs>
  <g id="Group_4" data-name="Group 4" transform="translate(-445 454)">
    <g id="Path_266" data-name="Path 266" class="cls-1" transform="translate(445 -454)">
      <path class="cls-7" d="M 141 277 C 131.769287109375 277 122.5458755493164 276.0703735351562 113.5859603881836 274.2368774414062 C 104.8562927246094 272.4505310058594 96.26953887939453 269.7850952148438 88.064208984375 266.3145141601562 C 80.00670623779297 262.9064636230469 72.23487854003906 258.68798828125 64.96458435058594 253.7762908935547 C 57.7620849609375 248.9103698730469 50.98899841308594 243.3220367431641 44.83349990844727 237.1665344238281 C 38.67795944213867 231.0110015869141 33.08962631225586 224.2379150390625 28.22370910644531 217.0354156494141 C 23.3120002746582 209.7651214599609 19.09354209899902 201.9932861328125 15.6855001449585 193.935791015625 C 12.21495819091797 185.7304534912109 9.549458503723145 177.1437072753906 7.763124942779541 168.4140472412109 C 5.929625034332275 159.4541320800781 5 150.230712890625 5 141 C 5 131.769287109375 5.929625034332275 122.5458755493164 7.763124942779541 113.5859603881836 C 9.549458503723145 104.8562927246094 12.21495819091797 96.26953887939453 15.6855001449585 88.064208984375 C 19.09354209899902 80.00670623779297 23.3120002746582 72.23491668701172 28.22370910644531 64.96462249755859 C 33.08962631225586 57.7620849609375 38.67795944213867 50.98899841308594 44.83349990844727 44.83349990844727 C 50.98899841308594 38.67795944213867 57.7620849609375 33.08962631225586 64.96462249755859 28.22370910644531 C 72.23491668701172 23.3120002746582 80.00670623779297 19.09354209899902 88.064208984375 15.6855001449585 C 96.26953887939453 12.21495819091797 104.8562927246094 9.549458503723145 113.5859603881836 7.763124942779541 C 122.5458755493164 5.929625034332275 131.769287109375 5 141 5 C 150.230712890625 5 159.4541320800781 5.929625034332275 168.4140472412109 7.763124942779541 C 177.1437072753906 9.549458503723145 185.7304534912109 12.21495819091797 193.935791015625 15.6855001449585 C 201.9932861328125 19.09354209899902 209.7651214599609 23.3120002746582 217.0354156494141 28.22370910644531 C 224.2379150390625 33.08962631225586 231.0110015869141 38.67795944213867 237.1665344238281 44.83349990844727 C 243.3220367431641 50.98899841308594 248.9103698730469 57.7620849609375 253.7762908935547 64.96458435058594 C 258.68798828125 72.23487854003906 262.9064636230469 80.00670623779297 266.3145141601562 88.064208984375 C 269.7850952148438 96.26953887939453 272.4505310058594 104.8562927246094 274.2368774414062 113.5859603881836 C 276.0703735351562 122.5458755493164 277 131.769287109375 277 141 C 277 150.230712890625 276.0703735351562 159.4541320800781 274.2368774414062 168.4140472412109 C 272.4505310058594 177.1437072753906 269.7850952148438 185.7304534912109 266.3145141601562 193.935791015625 C 262.9064636230469 201.9932861328125 258.68798828125 209.7651214599609 253.7762908935547 217.0354156494141 C 248.9103698730469 224.2379150390625 243.3220367431641 231.0110015869141 237.1665344238281 237.1665344238281 C 231.0110015869141 243.3220367431641 224.2379150390625 248.9103698730469 217.0354156494141 253.7762908935547 C 209.7651214599609 258.68798828125 201.9932861328125 262.9064636230469 193.935791015625 266.3145141601562 C 185.7304534912109 269.7850952148438 177.1437072753906 272.4505310058594 168.4140472412109 274.2368774414062 C 159.4541320800781 276.0703735351562 150.230712890625 277 141 277 Z"/>
      <path class="cls-8" d="M 141 10 C 68.766357421875 10 10 68.766357421875 10 141 C 10 213.233642578125 68.766357421875 272 141 272 C 213.233642578125 272 272 213.233642578125 272 141 C 272 68.766357421875 213.233642578125 10 141 10 M 141 0 C 218.8721313476562 0 282 63.12786865234375 282 141 C 282 218.8721313476562 218.8721313476562 282 141 282 C 63.12786865234375 282 0 218.8721313476562 0 141 C 0 63.12786865234375 63.12786865234375 0 141 0 Z"/>
    </g>
    <g id="Path_1" data-name="Path 1" transform="translate(459 -440)">
      <path class="cls-7" d="M 126.6920013427734 252.8840026855469 C 118.1297225952148 252.8840026855469 109.5729370117188 252.0214080810547 101.2593765258789 250.3202209472656 C 93.15737915039062 248.6623077392578 85.18797302246094 246.1884765625 77.57253265380859 242.9674072265625 C 70.09525299072266 239.8047790527344 62.88334655761719 235.8903198242188 56.13718795776367 231.3326873779297 C 49.45500183105469 226.8182830810547 43.17134475708008 221.6337890625 37.46078109741211 215.9232177734375 C 31.75021934509277 210.2126617431641 26.56571960449219 203.9290008544922 22.05131340026855 197.2468109130859 C 17.49368858337402 190.5006561279297 13.57921981811523 183.2887573242188 10.41659545898438 175.8114776611328 C 7.19553279876709 168.1960296630859 4.721688747406006 160.2266235351562 3.063782691955566 152.1246337890625 C 1.362595081329346 143.8110656738281 0.5000013709068298 135.2542877197266 0.5000013709068298 126.6920013427734 C 0.5000013709068298 118.1297225952148 1.362595081329346 109.5729370117188 3.063782691955566 101.2593765258789 C 4.721688747406006 93.15737915039062 7.19553279876709 85.18797302246094 10.41659545898438 77.57253265380859 C 13.57921981811523 70.09525299072266 17.49368858337402 62.88334655761719 22.05131340026855 56.13718795776367 C 26.56571960449219 49.45500183105469 31.75021934509277 43.17134475708008 37.46078109741211 37.46078109741211 C 43.17134475708008 31.75021934509277 49.45500183105469 26.56571960449219 56.13718795776367 22.05131340026855 C 62.88334655761719 17.49368858337402 70.09525299072266 13.57921981811523 77.57253265380859 10.41659545898438 C 85.18797302246094 7.19553279876709 93.15737915039062 4.721688747406006 101.2593765258789 3.063782691955566 C 109.5729370117188 1.362595081329346 118.1297225952148 0.5000013709068298 126.6920013427734 0.5000013709068298 C 135.2542877197266 0.5000013709068298 143.8110656738281 1.362595081329346 152.1246337890625 3.063782691955566 C 160.2266235351562 4.721688747406006 168.1960296630859 7.19553279876709 175.8114776611328 10.41659545898438 C 183.2887573242188 13.57921981811523 190.5006561279297 17.49368858337402 197.2468109130859 22.05131340026855 C 203.9290008544922 26.56571960449219 210.2126617431641 31.75021934509277 215.9232177734375 37.46078109741211 C 221.6337890625 43.17134475708008 226.8182830810547 49.45500183105469 231.3326873779297 56.13718795776367 C 235.8903198242188 62.88334655761719 239.8047790527344 70.09525299072266 242.9674072265625 77.57253265380859 C 246.1884765625 85.18797302246094 248.6623077392578 93.15737915039062 250.3202209472656 101.2593765258789 C 252.0214080810547 109.5729370117188 252.8840026855469 118.1297225952148 252.8840026855469 126.6920013427734 C 252.8840026855469 135.2542877197266 252.0214080810547 143.8110656738281 250.3202209472656 152.1246337890625 C 248.6623077392578 160.2266235351562 246.1884765625 168.1960296630859 242.9674072265625 175.8114776611328 C 239.8047790527344 183.2887573242188 235.8903198242188 190.5006561279297 231.3326873779297 197.2468109130859 C 226.8182830810547 203.9290008544922 221.6337890625 210.2126617431641 215.9232177734375 215.9232177734375 C 210.2126617431641 221.6337890625 203.9290008544922 226.8182830810547 197.2468109130859 231.3326873779297 C 190.5006561279297 235.8903198242188 183.2887573242188 239.8047790527344 175.8114776611328 242.9674072265625 C 168.1960296630859 246.1884765625 160.2266235351562 248.6623077392578 152.1246337890625 250.3202209472656 C 143.8110656738281 252.0214080810547 135.2542877197266 252.8840026855469 126.6920013427734 252.8840026855469 Z"/>
      <path class="cls-9" d="M 126.6920013427734 1 C 118.1632995605469 1 109.6402740478516 1.859161376953125 101.3596038818359 3.553634643554688 C 93.28993225097656 5.204940795898438 85.35234069824219 7.668899536132812 77.76730346679688 10.87710571289062 C 70.31976318359375 14.02713012695312 63.13650512695312 17.92610168457031 56.41709899902344 22.46563720703125 C 49.76126098632812 26.96220397949219 43.50239562988281 32.12626647949219 37.8143310546875 37.8143310546875 C 32.12626647949219 43.50239562988281 26.96220397949219 49.76126098632812 22.46563720703125 56.41709899902344 C 17.92610168457031 63.13650512695312 14.02713012695312 70.31976318359375 10.87710571289062 77.76730346679688 C 7.668899536132812 85.35234069824219 5.204940795898438 93.28993225097656 3.553634643554688 101.3596038818359 C 1.859161376953125 109.6402740478516 1 118.1632995605469 1 126.6920013427734 C 1 135.220703125 1.859161376953125 143.7437438964844 3.553634643554688 152.0243988037109 C 5.204940795898438 160.0940704345703 7.668899536132812 168.0316772460938 10.87710571289062 175.61669921875 C 14.02713012695312 183.0642395019531 17.92610168457031 190.2474975585938 22.46563720703125 196.9669036865234 C 26.96220397949219 203.6227416992188 32.12626647949219 209.8816070556641 37.8143310546875 215.5696716308594 C 43.50239562988281 221.2577362060547 49.76126098632812 226.4217987060547 56.41709899902344 230.9183654785156 C 63.13650512695312 235.4579010009766 70.31976318359375 239.3568725585938 77.76730346679688 242.5068969726562 C 85.35234069824219 245.7151031494141 93.28993225097656 248.1790618896484 101.3596038818359 249.8303680419922 C 109.6402740478516 251.5248413085938 118.1632995605469 252.3840026855469 126.6920013427734 252.3840026855469 C 135.220703125 252.3840026855469 143.7437438964844 251.5248413085938 152.0243988037109 249.8303680419922 C 160.0940704345703 248.1790618896484 168.0316772460938 245.7151031494141 175.61669921875 242.5068969726562 C 183.0642395019531 239.3568725585938 190.2474975585938 235.4579010009766 196.9669036865234 230.9183654785156 C 203.6227416992188 226.4217987060547 209.8816070556641 221.2577362060547 215.5696716308594 215.5696716308594 C 221.2577362060547 209.8816070556641 226.4217987060547 203.6227416992188 230.9183654785156 196.9669036865234 C 235.4579010009766 190.2474975585938 239.3568725585938 183.0642395019531 242.5068969726562 175.61669921875 C 245.7151031494141 168.0316772460938 248.1790618896484 160.0940704345703 249.8303680419922 152.0243988037109 C 251.5248413085938 143.7437438964844 252.3840026855469 135.220703125 252.3840026855469 126.6920013427734 C 252.3840026855469 118.1632995605469 251.5248413085938 109.6402740478516 249.8303680419922 101.3596038818359 C 248.1790618896484 93.28993225097656 245.7151031494141 85.35234069824219 242.5068969726562 77.76730346679688 C 239.3568725585938 70.31976318359375 235.4579010009766 63.13650512695312 230.9183654785156 56.41709899902344 C 226.4217987060547 49.76126098632812 221.2577362060547 43.50239562988281 215.5696716308594 37.8143310546875 C 209.8816070556641 32.12626647949219 203.6227416992188 26.96220397949219 196.9669036865234 22.46563720703125 C 190.2474975585938 17.92610168457031 183.0642395019531 14.02713012695312 175.61669921875 10.87710571289062 C 168.0316772460938 7.668899536132812 160.0940704345703 5.204940795898438 152.0243988037109 3.553634643554688 C 143.7437438964844 1.859161376953125 135.220703125 1 126.6920013427734 1 M 126.6920013427734 0 C 196.6620635986328 0 253.3840026855469 56.72193908691406 253.3840026855469 126.6920013427734 C 253.3840026855469 196.6620635986328 196.6620635986328 253.3840026855469 126.6920013427734 253.3840026855469 C 56.72193908691406 253.3840026855469 0 196.6620635986328 0 126.6920013427734 C 0 56.72193908691406 56.72193908691406 0 126.6920013427734 0 Z"/>
    </g>
    <line id="Line_1" data-name="Line 1" class="cls-2" x2="28" y2="28" transform="translate(630.5 -295)"/>
    <g id="Ellipse_2" data-name="Ellipse 2" class="cls-3" transform="translate(512.5 -403)">
      <circle class="cls-7" cx="65" cy="65" r="65"/>
      <circle class="cls-10" cx="65" cy="65" r="60"/>
    </g>
    <line id="Line_2" data-name="Line 2" class="cls-4" x2="16" y2="14" transform="translate(522 -353)"/>
    <line id="Line_3" data-name="Line 3" class="cls-4" y1="24" x2="22" transform="translate(538 -363)"/>
    <line id="Line_4" data-name="Line 4" class="cls-4" x2="30" y2="26" transform="translate(560 -363)"/>
    <line id="Line_5" data-name="Line 5" class="cls-4" y1="67" x2="60" transform="translate(590 -404)"/>
    <line id="Line_6" data-name="Line 6" class="cls-4" x2="24" transform="translate(634 -411)"/>
    <line id="Line_7" data-name="Line 7" class="cls-4" y1="24" transform="translate(658 -411)"/>
    <line id="Line_9" data-name="Line 9" class="cls-5" y1="36" x2="32" transform="translate(609 -383)"/>
    <text id="credence" class="cls-6" transform="translate(585.5 -234)"><tspan x="-101.146" y="0">credence</tspan></text>
    <line id="Line_10" data-name="Line 10" class="cls-5" y1="34" x2="30" transform="translate(600 -393)"/>
  </g>
</svg>
